# xmcd CD database file
#
# Track frame offsets:
#	150
#	11621
#	31428
#	44861
#	54304
#	68416
#	87264
#	103421
#	114387
#	134104
#	144656
#	155224
#	166618
#	177056
#	189546
#	201066
#	209668
#	217930
#	230904
#	248002
#	260561
#
# Disc length: 3788 seconds
#
# Revision: 0
# Processed by: cddbd v1.5.2PL0 Copyright (c) Steve Scherf et al.
# Submitted via: CDex 1.77
#
DISCID=3b0eca15
DTITLE=Dave Johns - Ragtime and Country Blues Selection And More
DYEAR=2007
DGENRE=Blues
TTITLE0=Ragtime Millionaire
TTITLE1=Careless Love
TTITLE2=So Long Now Pretty Woman
TTITLE3=Too Tight Rag
TTITLE4=Woody (Country Boy)
TTITLE5=Right Now
TTITLE6=Georgia Bound
TTITLE7=True Love, True Love (In The Pines) (Black Girl)
TTITLE8=Back To Mine
TTITLE9=Shuffle Rag
TTITLE10=Sporting Life Blues
TTITLE11=Saint James Infirmary
TTITLE12=Seventh Heaven
TTITLE13=Cocaine Blues
TTITLE14=Wabash Rag
TTITLE15=Good Little Thing
TTITLE16=Old Dan Tucker
TTITLE17=Original Talkig Blues
TTITLE18=Make Me Down A Pallet On Your Floor
TTITLE19=Midnight Special
TTITLE20=Three Chord Charlie and Skip Along Dai (James Childs)
EXTD=YEAR: 2007
EXTT0=
EXTT1=
EXTT2=
EXTT3=
EXTT4=
EXTT5=
EXTT6=
EXTT7=
EXTT8=
EXTT9=
EXTT10=
EXTT11=
EXTT12=
EXTT13=
EXTT14=
EXTT15=
EXTT16=
EXTT17=
EXTT18=
EXTT19=
EXTT20=
PLAYORDER=
